<?xml version="1.0" encoding="UTF-8" standalone="no"?>
<!-- Created with Inkscape (http://www.inkscape.org/) -->

<svg
   width="34mm"
   height="297mm"
   viewBox="0 0 34 297"
   version="1.1"
   id="svg1"
   xml:space="preserve"
   xmlns="http://www.w3.org/2000/svg"
   xmlns:svg="http://www.w3.org/2000/svg"><defs
     id="defs1" /><g
     id="layer1"><path
       style="fill:#7398ff;fill-opacity:1"
       d="M 23.141257,292.15737 C 14.494283,271.1784 8.6979304,251.36746 5.7372188,232.67336 4.6269405,225.66301 3.9883847,219.7301 3.4781209,211.68379 c -0.2359456,-3.72061 -0.1985202,-17.79637 0.05776,-21.72348 0.9857917,-15.10582 2.5201919,-25.30347 7.7740821,-51.66666 4.081179,-20.47871 5.534206,-29.32534 6.6659,-40.584755 0.709983,-7.06373 0.970503,-12.44938 0.962078,-19.88872 -0.0082,-7.19833 -0.218221,-11.99668 -0.793605,-18.12736 -1.648198,-17.56146 -5.864905,-36.00672 -12.5747083,-55.0059099 -0.3777644,-1.06966 -0.6687001,-1.94484 -0.6465239,-1.94484 0.1295782,0 3.4594746,6.0519 5.5278802,10.0466199 12.72945,24.5844 19.179288,47.51292 20.192809,71.78338 0.221989,5.31591 0.03417,14.56242 -0.405484,19.962125 -0.700697,8.60578 -1.772699,16.81489 -3.536419,27.08096 -0.769657,4.47993 -1.111221,6.34458 -3.535643,19.3016 -3.102218,16.57941 -4.285004,23.49149 -5.462915,31.92471 -3.612761,25.86547 -3.935998,48.55211 -1.035199,72.65624 1.427176,11.85908 4.193224,26.54442 7.006283,37.19734 0.190196,0.72026 0.328526,1.33182 0.3074,1.35902 -0.02113,0.0272 -0.399378,-0.82631 -0.840559,-1.89669 z"
       id="path1" /></g></svg>
